<?xml version="1.0" encoding="UTF-8" standalone="no"?>
<!DOCTYPE svg PUBLIC "-//W3C//DTD SVG 1.1//EN" "http://www.w3.org/Graphics/SVG/1.1/DTD/svg11.dtd">
<svg xmlns="http://www.w3.org/2000/svg" version="1.1" viewBox="0.00 0.00 256.00 256.00">
<g stroke-width="2.00" fill="none" stroke-linecap="butt">
<path stroke="#808080" vector-effect="non-scaling-stroke" d="
  M 90.24 113.06
  L 90.26 116.42
  Q 90.26 117.08 89.62 117.24
  C 80.11 119.62 77.98 103.91 90.75 105.79
  Q 91.26 105.87 91.45 105.39
  C 91.71 104.76 91.49 104.55 90.89 104.38
  C 76.67 100.15 75.77 123.34 91.48 118.47
  Q 92.00 118.31 92.00 117.76
  L 92.00 111.75
  Q 92.00 111.25 91.50 111.25
  L 87.58 111.25
  Q 87.19 111.25 87.04 111.62
  Q 86.96 111.80 87.00 112.00
  Q 87.02 112.10 87.75 112.52
  Q 88.47 112.92 89.21 112.48
  Q 90.23 111.88 90.24 113.06"
/>
<path stroke="#808080" vector-effect="non-scaling-stroke" d="
  M 118.93 103.99
  A 0.72 0.72 0.0 0 0 118.03 104.65
  L 117.99 105.43
  Q 117.96 106.02 118.52 106.21
  C 120.35 106.83 120.67 104.45 118.93 103.99"
/>
<path stroke="#808080" vector-effect="non-scaling-stroke" d="
  M 126.19 109.76
  Q 127.19 109.92 127.99 109.45
  Q 128.90 108.91 127.95 108.46
  Q 127.23 108.12 126.44 108.28
  Q 125.87 108.39 125.52 107.92
  Q 124.86 107.01 125.63 106.09
  Q 126.40 105.17 125.21 105.29
  Q 124.50 105.36 123.87 105.70
  Q 123.33 105.99 123.47 106.60
  Q 123.88 108.32 122.33 108.35
  Q 121.08 108.37 121.91 109.31
  Q 122.31 109.76 122.83 109.80
  Q 123.36 109.85 123.38 110.37
  L 123.75 117.63
  Q 123.78 118.22 124.29 118.52
  C 124.90 118.88 128.94 119.93 127.93 117.87
  Q 127.69 117.38 127.16 117.49
  C 124.60 118.03 125.49 111.70 125.51 110.34
  Q 125.51 109.66 126.19 109.76"
/>
<path stroke="#808080" vector-effect="non-scaling-stroke" d="
  M 109.16 109.75
  Q 110.38 110.02 111.15 109.25
  Q 111.86 108.54 110.87 108.40
  L 109.19 108.15
  Q 108.71 108.07 108.45 107.66
  Q 108.02 106.98 108.47 106.29
  Q 109.02 105.45 108.01 105.49
  L 106.95 105.53
  Q 106.30 105.55 106.44 106.19
  Q 106.88 108.09 105.18 108.35
  Q 104.37 108.48 104.81 109.17
  Q 105.21 109.81 105.87 109.76
  Q 106.46 109.72 106.48 110.32
  C 106.57 113.31 105.21 119.31 109.90 119.17
  Q 110.96 119.14 111.02 118.23
  Q 111.07 117.54 110.38 117.52
  L 109.26 117.48
  Q 108.50 117.45 108.50 116.69
  L 108.50 110.29
  Q 108.50 109.61 109.16 109.75"
/>
<path stroke="#808080" vector-effect="non-scaling-stroke" d="
  M 61.00 107.48
  A 0.30 0.30 0.0 0 0 60.66 107.18
  L 38.26 110.36
  A 0.30 0.30 0.0 0 0 38.00 110.66
  L 38.00 127.20
  A 0.30 0.30 0.0 0 0 38.30 127.50
  L 60.70 127.50
  A 0.30 0.30 0.0 0 0 61.00 127.20
  L 61.00 107.48"
/>
<path stroke="#808080" vector-effect="non-scaling-stroke" d="
  M 96.74 114.00
  L 103.00 114.00
  Q 103.61 114.00 103.66 113.39
  C 104.18 107.76 97.29 105.95 94.92 110.93
  C 92.37 116.28 97.01 120.55 102.41 118.73
  Q 102.97 118.54 102.97 117.95
  L 102.97 117.65
  A 0.42 0.42 0.0 0 0 102.41 117.25
  Q 98.15 118.77 96.15 114.98
  Q 95.63 114.00 96.74 114.00"
/>
<path stroke="#808080" vector-effect="non-scaling-stroke" d="
  M 120.0244 108.9052
  A 0.80 0.80 0.0 0 0 119.2286 108.1011
  L 118.8486 108.0991
  A 0.80 0.80 0.0 0 0 118.0444 108.8949
  L 117.9956 118.2148
  A 0.80 0.80 0.0 0 0 118.7914 119.0189
  L 119.1714 119.0209
  A 0.80 0.80 0.0 0 0 119.9756 118.2251
  L 120.0244 108.9052"
/>
<path stroke="#808080" vector-effect="non-scaling-stroke" d="
  M 139.0884 119.2149
  A 5.62 5.22 94.2 0 0 144.7060 113.9923
  A 5.62 5.22 94.2 0 0 139.9116 108.0051
  A 5.62 5.22 94.2 0 0 134.2940 113.2277
  A 5.62 5.22 94.2 0 0 139.0884 119.2149"
/>
<path stroke="#808080" vector-effect="non-scaling-stroke" d="
  M 148.71 109.01
  Q 148.53 108.22 147.87 108.00
  Q 147.07 107.72 147.06 108.57
  L 146.97 118.36
  Q 146.97 119.00 147.61 119.00
  L 148.29 119.00
  Q 148.96 119.00 148.97 118.33
  C 149.00 116.30 148.28 110.53 150.81 109.81
  C 155.35 108.51 154.26 115.73 154.26 118.27
  Q 154.26 118.79 154.74 118.96
  C 157.32 119.90 156.08 112.01 155.95 111.25
  C 155.39 107.97 152.02 107.08 149.54 109.27
  Q 148.91 109.83 148.71 109.01"
/>
<path stroke="#808080" vector-effect="non-scaling-stroke" d="
  M 36.50 110.93
  A 0.34 0.34 0.0 0 0 36.11 110.60
  L 18.79 113.08
  A 0.34 0.34 0.0 0 0 18.50 113.41
  L 18.50 127.16
  A 0.34 0.34 0.0 0 0 18.84 127.50
  L 36.16 127.50
  A 0.34 0.34 0.0 0 0 36.50 127.16
  L 36.50 110.93"
/>
<path stroke="#808080" vector-effect="non-scaling-stroke" d="
  M 142.21 137.11
  C 132.85 129.52 125.95 147.22 135.28 151.16
  Q 138.86 152.67 142.39 149.39
  Q 142.94 148.88 142.86 149.63
  Q 142.65 151.58 144.65 151.23
  A 0.76 0.76 0.0 0 0 145.28 150.48
  L 145.23 128.99
  Q 145.23 128.50 144.74 128.50
  L 143.00 128.50
  Q 142.50 128.50 142.50 129.00
  L 142.51 136.97
  Q 142.51 137.35 142.21 137.11"
/>
<path stroke="#808080" vector-effect="non-scaling-stroke" d="
  M 18.50 143.56
  A 0.49 0.49 0.0 0 0 18.92 144.05
  L 35.94 146.38
  A 0.49 0.49 0.0 0 0 36.50 145.90
  L 36.50 129.24
  A 0.49 0.49 0.0 0 0 36.01 128.75
  L 18.99 128.75
  A 0.49 0.49 0.0 0 0 18.50 129.24
  L 18.50 143.56"
/>
<path stroke="#808080" vector-effect="non-scaling-stroke" d="
  M 38.42 128.75
  A 0.45 0.45 0.0 0 0 37.97 129.20
  L 38.01 146.28
  A 0.45 0.45 0.0 0 0 38.39 146.73
  L 60.65 149.94
  A 0.45 0.45 0.0 0 0 61.16 149.49
  L 60.94 129.19
  A 0.45 0.45 0.0 0 0 60.49 128.75
  L 38.42 128.75"
/>
<path stroke="#808080" vector-effect="non-scaling-stroke" d="
  M 86.53 147.36
  L 82.62 130.11
  Q 82.48 129.50 81.85 129.50
  L 80.21 129.50
  Q 79.56 129.50 79.73 130.13
  Q 82.21 139.68 84.55 149.30
  C 84.99 151.12 85.74 151.99 87.69 151.04
  Q 88.09 150.84 88.21 150.41
  L 92.53 134.26
  Q 92.73 133.53 92.90 134.27
  L 96.80 150.71
  Q 96.92 151.25 97.48 151.25
  L 99.28 151.25
  Q 99.84 151.25 99.99 150.71
  L 105.72 130.27
  A 0.61 0.60 11.0 0 0 105.20 129.51
  Q 103.06 129.27 102.75 130.56
  Q 100.77 138.77 98.72 147.00
  Q 98.54 147.75 98.36 147.00
  L 94.43 130.03
  Q 94.31 129.50 93.76 129.50
  L 92.09 129.50
  Q 91.41 129.50 91.25 130.15
  L 86.80 147.37
  Q 86.66 147.91 86.53 147.36"
/>
<path stroke="#808080" vector-effect="non-scaling-stroke" d="
  M 111.05 131.33
  A 1.68 1.68 0.0 0 0 109.37 129.65
  A 1.68 1.68 0.0 0 0 107.69 131.33
  A 1.68 1.68 0.0 0 0 109.37 133.01
  A 1.68 1.68 0.0 0 0 111.05 131.33"
/>
<path stroke="#808080" vector-effect="non-scaling-stroke" d="
  M 226.2972 151.7986
  A 11.00 7.16 90.9 0 0 233.6291 140.9125
  A 11.00 7.16 90.9 0 0 226.6428 129.8014
  A 11.00 7.16 90.9 0 0 219.3109 140.6875
  A 11.00 7.16 90.9 0 0 226.2972 151.7986"
/>
<path stroke="#808080" vector-effect="non-scaling-stroke" d="
  M 210.71 133.17
  A 0.37 0.37 0.0 0 1 211.25 133.50
  L 211.25 150.75
  Q 211.25 151.25 211.75 151.25
  L 213.25 151.25
  Q 213.75 151.25 213.75 150.75
  L 213.75 130.97
  Q 213.75 130.28 213.07 130.36
  Q 210.12 130.72 207.64 132.50
  Q 207.25 132.78 207.25 133.25
  L 207.25 134.03
  Q 207.25 134.91 208.04 134.51
  L 210.71 133.17"
/>
<path stroke="#808080" vector-effect="non-scaling-stroke" d="
  M 116.78 137.36
  L 116.73 136.35
  Q 116.70 135.75 116.10 135.75
  L 114.93 135.75
  Q 114.36 135.75 114.37 136.32
  L 114.56 150.78
  Q 114.56 151.25 115.03 151.25
  L 116.55 151.25
  Q 117.25 151.25 117.25 150.56
  C 117.25 148.01 116.63 141.60 117.88 139.58
  C 120.02 136.09 124.65 137.70 124.70 141.76
  Q 124.76 146.24 124.75 150.74
  Q 124.75 151.25 125.26 151.25
  L 126.97 151.25
  Q 127.44 151.25 127.45 150.78
  C 127.61 144.27 129.26 133.54 119.81 135.78
  Q 119.09 135.96 117.50 137.63
  Q 116.83 138.33 116.78 137.36"
/>
<path stroke="#808080" vector-effect="non-scaling-stroke" d="
  M 154.8237 151.6377
  A 8.17 7.60 95.1 0 0 163.1199 144.1756
  A 8.17 7.60 95.1 0 0 156.2763 135.3623
  A 8.17 7.60 95.1 0 0 147.9801 142.8244
  A 8.17 7.60 95.1 0 0 154.8237 151.6377"
/>
<path stroke="#808080" vector-effect="non-scaling-stroke" d="
  M 190.96 139.75
  C 191.31 137.17 194.18 137.01 196.05 138.04
  Q 196.63 138.35 196.89 137.75
  L 197.25 136.90
  Q 197.49 136.35 196.95 136.11
  C 189.33 132.68 184.05 142.12 193.60 144.80
  Q 194.12 144.94 194.48 145.35
  Q 195.69 146.73 195.00 148.34
  Q 194.80 148.79 194.35 149.00
  Q 191.77 150.20 189.25 148.68
  Q 188.61 148.29 188.44 149.02
  L 188.18 150.11
  Q 188.05 150.67 188.58 150.88
  C 191.62 152.09 195.72 152.01 197.50 148.86
  C 200.16 144.13 193.87 142.81 191.36 140.76
  Q 190.88 140.37 190.96 139.75"
/>
<path stroke="#808080" vector-effect="non-scaling-stroke" d="
  M 110.75 136.06
  A 0.30 0.30 0.0 0 0 110.45 135.76
  L 108.31 135.76
  A 0.30 0.30 0.0 0 0 108.01 136.06
  L 108.01 150.96
  A 0.30 0.30 0.0 0 0 108.31 151.26
  L 110.45 151.26
  A 0.30 0.30 0.0 0 0 110.75 150.96
  L 110.75 136.06"
/>
<path stroke="#808080" vector-effect="non-scaling-stroke" d="
  M 175.23 139.46
  L 178.61 150.44
  Q 178.75 150.90 179.19 151.09
  Q 181.28 151.98 181.91 149.94
  Q 184.00 143.18 186.20 136.40
  Q 186.41 135.75 185.72 135.75
  L 184.21 135.75
  Q 183.64 135.75 183.50 136.29
  L 180.43 147.71
  Q 180.23 148.43 180.02 147.72
  L 176.59 136.40
  Q 176.39 135.75 175.72 135.75
  L 174.52 135.75
  Q 174.00 135.75 173.84 136.25
  L 170.29 147.75
  Q 170.02 148.60 169.81 147.74
  L 166.92 136.40
  Q 166.76 135.75 166.08 135.75
  L 164.57 135.75
  Q 163.95 135.75 164.13 136.35
  L 168.42 150.64
  Q 168.61 151.25 169.24 151.25
  L 170.54 151.25
  Q 171.20 151.25 171.40 150.63
  L 174.99 139.46
  Q 175.11 139.08 175.23 139.46"
/>
<path stroke="#808080" vector-effect="non-scaling-stroke" d="
  M 96.69 112.53
  L 101.55 112.45
  A 0.25 0.25 0.0 0 0 101.79 112.19
  L 101.79 112.02
  A 2.56 2.56 0.0 0 0 99.18 109.51
  L 98.94 109.51
  A 2.56 2.56 0.0 0 0 96.43 112.12
  L 96.43 112.29
  A 0.25 0.25 0.0 0 0 96.69 112.53"
/>
<path stroke="#808080" vector-effect="non-scaling-stroke" d="
  M 139.4400 117.6797
  A 4.09 3.20 90.7 0 0 142.6898 113.6291
  A 4.09 3.20 90.7 0 0 139.5400 109.5003
  A 4.09 3.20 90.7 0 0 136.2902 113.5509
  A 4.09 3.20 90.7 0 0 139.4400 117.6797"
/>
<path stroke="#808080" vector-effect="non-scaling-stroke" d="
  M 138.0655 149.4185
  A 5.93 4.53 91.3 0 0 142.7288 143.5928
  A 5.93 4.53 91.3 0 0 138.3345 137.5615
  A 5.93 4.53 91.3 0 0 133.6712 143.3872
  A 5.93 4.53 91.3 0 0 138.0655 149.4185"
/>
<path stroke="#808080" vector-effect="non-scaling-stroke" d="
  M 226.4196 149.5399
  A 8.72 4.25 90.2 0 0 230.7000 140.8348
  A 8.72 4.25 90.2 0 0 226.4804 132.1001
  A 8.72 4.25 90.2 0 0 222.2000 140.8052
  A 8.72 4.25 90.2 0 0 226.4196 149.5399"
/>
<path stroke="#808080" vector-effect="non-scaling-stroke" d="
  M 155.5495 149.4900
  A 6.01 4.66 90.1 0 0 160.2200 143.4881
  A 6.01 4.66 90.1 0 0 155.5705 137.4700
  A 6.01 4.66 90.1 0 0 150.9000 143.4719
  A 6.01 4.66 90.1 0 0 155.5495 149.4900"
/>
</g>
<path fill="#000000" d="
  M 256.00 95.06
  L 256.00 161.06
  C 254.54 167.09 250.69 168.00 244.78 168.00
  Q 127.59 168.00 10.40 168.00
  C 4.81 168.00 1.21 166.53 0.00 160.94
  L 0.00 94.94
  C 1.40 89.13 5.15 88.00 10.91 88.00
  Q 129.08 88.01 247.25 88.00
  Q 254.35 87.99 256.00 95.06
  Z
  M 90.24 113.06
  L 90.26 116.42
  Q 90.26 117.08 89.62 117.24
  C 80.11 119.62 77.98 103.91 90.75 105.79
  Q 91.26 105.87 91.45 105.39
  C 91.71 104.76 91.49 104.55 90.89 104.38
  C 76.67 100.15 75.77 123.34 91.48 118.47
  Q 92.00 118.31 92.00 117.76
  L 92.00 111.75
  Q 92.00 111.25 91.50 111.25
  L 87.58 111.25
  Q 87.19 111.25 87.04 111.62
  Q 86.96 111.80 87.00 112.00
  Q 87.02 112.10 87.75 112.52
  Q 88.47 112.92 89.21 112.48
  Q 90.23 111.88 90.24 113.06
  Z
  M 118.93 103.99
  A 0.72 0.72 0.0 0 0 118.03 104.65
  L 117.99 105.43
  Q 117.96 106.02 118.52 106.21
  C 120.35 106.83 120.67 104.45 118.93 103.99
  Z
  M 126.19 109.76
  Q 127.19 109.92 127.99 109.45
  Q 128.90 108.91 127.95 108.46
  Q 127.23 108.12 126.44 108.28
  Q 125.87 108.39 125.52 107.92
  Q 124.86 107.01 125.63 106.09
  Q 126.40 105.17 125.21 105.29
  Q 124.50 105.36 123.87 105.70
  Q 123.33 105.99 123.47 106.60
  Q 123.88 108.32 122.33 108.35
  Q 121.08 108.37 121.91 109.31
  Q 122.31 109.76 122.83 109.80
  Q 123.36 109.85 123.38 110.37
  L 123.75 117.63
  Q 123.78 118.22 124.29 118.52
  C 124.90 118.88 128.94 119.93 127.93 117.87
  Q 127.69 117.38 127.16 117.49
  C 124.60 118.03 125.49 111.70 125.51 110.34
  Q 125.51 109.66 126.19 109.76
  Z
  M 109.16 109.75
  Q 110.38 110.02 111.15 109.25
  Q 111.86 108.54 110.87 108.40
  L 109.19 108.15
  Q 108.71 108.07 108.45 107.66
  Q 108.02 106.98 108.47 106.29
  Q 109.02 105.45 108.01 105.49
  L 106.95 105.53
  Q 106.30 105.55 106.44 106.19
  Q 106.88 108.09 105.18 108.35
  Q 104.37 108.48 104.81 109.17
  Q 105.21 109.81 105.87 109.76
  Q 106.46 109.72 106.48 110.32
  C 106.57 113.31 105.21 119.31 109.90 119.17
  Q 110.96 119.14 111.02 118.23
  Q 111.07 117.54 110.38 117.52
  L 109.26 117.48
  Q 108.50 117.45 108.50 116.69
  L 108.50 110.29
  Q 108.50 109.61 109.16 109.75
  Z
  M 61.00 107.48
  A 0.30 0.30 0.0 0 0 60.66 107.18
  L 38.26 110.36
  A 0.30 0.30 0.0 0 0 38.00 110.66
  L 38.00 127.20
  A 0.30 0.30 0.0 0 0 38.30 127.50
  L 60.70 127.50
  A 0.30 0.30 0.0 0 0 61.00 127.20
  L 61.00 107.48
  Z
  M 96.74 114.00
  L 103.00 114.00
  Q 103.61 114.00 103.66 113.39
  C 104.18 107.76 97.29 105.95 94.92 110.93
  C 92.37 116.28 97.01 120.55 102.41 118.73
  Q 102.97 118.54 102.97 117.95
  L 102.97 117.65
  A 0.42 0.42 0.0 0 0 102.41 117.25
  Q 98.15 118.77 96.15 114.98
  Q 95.63 114.00 96.74 114.00
  Z
  M 120.0244 108.9052
  A 0.80 0.80 0.0 0 0 119.2286 108.1011
  L 118.8486 108.0991
  A 0.80 0.80 0.0 0 0 118.0444 108.8949
  L 117.9956 118.2148
  A 0.80 0.80 0.0 0 0 118.7914 119.0189
  L 119.1714 119.0209
  A 0.80 0.80 0.0 0 0 119.9756 118.2251
  L 120.0244 108.9052
  Z
  M 139.0884 119.2149
  A 5.62 5.22 94.2 0 0 144.7060 113.9923
  A 5.62 5.22 94.2 0 0 139.9116 108.0051
  A 5.62 5.22 94.2 0 0 134.2940 113.2277
  A 5.62 5.22 94.2 0 0 139.0884 119.2149
  Z
  M 148.71 109.01
  Q 148.53 108.22 147.87 108.00
  Q 147.07 107.72 147.06 108.57
  L 146.97 118.36
  Q 146.97 119.00 147.61 119.00
  L 148.29 119.00
  Q 148.96 119.00 148.97 118.33
  C 149.00 116.30 148.28 110.53 150.81 109.81
  C 155.35 108.51 154.26 115.73 154.26 118.27
  Q 154.26 118.79 154.74 118.96
  C 157.32 119.90 156.08 112.01 155.95 111.25
  C 155.39 107.97 152.02 107.08 149.54 109.27
  Q 148.91 109.83 148.71 109.01
  Z
  M 36.50 110.93
  A 0.34 0.34 0.0 0 0 36.11 110.60
  L 18.79 113.08
  A 0.34 0.34 0.0 0 0 18.50 113.41
  L 18.50 127.16
  A 0.34 0.34 0.0 0 0 18.84 127.50
  L 36.16 127.50
  A 0.34 0.34 0.0 0 0 36.50 127.16
  L 36.50 110.93
  Z
  M 142.21 137.11
  C 132.85 129.52 125.95 147.22 135.28 151.16
  Q 138.86 152.67 142.39 149.39
  Q 142.94 148.88 142.86 149.63
  Q 142.65 151.58 144.65 151.23
  A 0.76 0.76 0.0 0 0 145.28 150.48
  L 145.23 128.99
  Q 145.23 128.50 144.74 128.50
  L 143.00 128.50
  Q 142.50 128.50 142.50 129.00
  L 142.51 136.97
  Q 142.51 137.35 142.21 137.11
  Z
  M 18.50 143.56
  A 0.49 0.49 0.0 0 0 18.92 144.05
  L 35.94 146.38
  A 0.49 0.49 0.0 0 0 36.50 145.90
  L 36.50 129.24
  A 0.49 0.49 0.0 0 0 36.01 128.75
  L 18.99 128.75
  A 0.49 0.49 0.0 0 0 18.50 129.24
  L 18.50 143.56
  Z
  M 38.42 128.75
  A 0.45 0.45 0.0 0 0 37.97 129.20
  L 38.01 146.28
  A 0.45 0.45 0.0 0 0 38.39 146.73
  L 60.65 149.94
  A 0.45 0.45 0.0 0 0 61.16 149.49
  L 60.94 129.19
  A 0.45 0.45 0.0 0 0 60.49 128.75
  L 38.42 128.75
  Z
  M 86.53 147.36
  L 82.62 130.11
  Q 82.48 129.50 81.85 129.50
  L 80.21 129.50
  Q 79.56 129.50 79.73 130.13
  Q 82.21 139.68 84.55 149.30
  C 84.99 151.12 85.74 151.99 87.69 151.04
  Q 88.09 150.84 88.21 150.41
  L 92.53 134.26
  Q 92.73 133.53 92.90 134.27
  L 96.80 150.71
  Q 96.92 151.25 97.48 151.25
  L 99.28 151.25
  Q 99.84 151.25 99.99 150.71
  L 105.72 130.27
  A 0.61 0.60 11.0 0 0 105.20 129.51
  Q 103.06 129.27 102.75 130.56
  Q 100.77 138.77 98.72 147.00
  Q 98.54 147.75 98.36 147.00
  L 94.43 130.03
  Q 94.31 129.50 93.76 129.50
  L 92.09 129.50
  Q 91.41 129.50 91.25 130.15
  L 86.80 147.37
  Q 86.66 147.91 86.53 147.36
  Z
  M 111.05 131.33
  A 1.68 1.68 0.0 0 0 109.37 129.65
  A 1.68 1.68 0.0 0 0 107.69 131.33
  A 1.68 1.68 0.0 0 0 109.37 133.01
  A 1.68 1.68 0.0 0 0 111.05 131.33
  Z
  M 226.2972 151.7986
  A 11.00 7.16 90.9 0 0 233.6291 140.9125
  A 11.00 7.16 90.9 0 0 226.6428 129.8014
  A 11.00 7.16 90.9 0 0 219.3109 140.6875
  A 11.00 7.16 90.9 0 0 226.2972 151.7986
  Z
  M 210.71 133.17
  A 0.37 0.37 0.0 0 1 211.25 133.50
  L 211.25 150.75
  Q 211.25 151.25 211.75 151.25
  L 213.25 151.25
  Q 213.75 151.25 213.75 150.75
  L 213.75 130.97
  Q 213.75 130.28 213.07 130.36
  Q 210.12 130.72 207.64 132.50
  Q 207.25 132.78 207.25 133.25
  L 207.25 134.03
  Q 207.25 134.91 208.04 134.51
  L 210.71 133.17
  Z
  M 116.78 137.36
  L 116.73 136.35
  Q 116.70 135.75 116.10 135.75
  L 114.93 135.75
  Q 114.36 135.75 114.37 136.32
  L 114.56 150.78
  Q 114.56 151.25 115.03 151.25
  L 116.55 151.25
  Q 117.25 151.25 117.25 150.56
  C 117.25 148.01 116.63 141.60 117.88 139.58
  C 120.02 136.09 124.65 137.70 124.70 141.76
  Q 124.76 146.24 124.75 150.74
  Q 124.75 151.25 125.26 151.25
  L 126.97 151.25
  Q 127.44 151.25 127.45 150.78
  C 127.61 144.27 129.26 133.54 119.81 135.78
  Q 119.09 135.96 117.50 137.63
  Q 116.83 138.33 116.78 137.36
  Z
  M 154.8237 151.6377
  A 8.17 7.60 95.1 0 0 163.1199 144.1756
  A 8.17 7.60 95.1 0 0 156.2763 135.3623
  A 8.17 7.60 95.1 0 0 147.9801 142.8244
  A 8.17 7.60 95.1 0 0 154.8237 151.6377
  Z
  M 190.96 139.75
  C 191.31 137.17 194.18 137.01 196.05 138.04
  Q 196.63 138.35 196.89 137.75
  L 197.25 136.90
  Q 197.49 136.35 196.95 136.11
  C 189.33 132.68 184.05 142.12 193.60 144.80
  Q 194.12 144.94 194.48 145.35
  Q 195.69 146.73 195.00 148.34
  Q 194.80 148.79 194.35 149.00
  Q 191.77 150.20 189.25 148.68
  Q 188.61 148.29 188.44 149.02
  L 188.18 150.11
  Q 188.05 150.67 188.58 150.88
  C 191.62 152.09 195.72 152.01 197.50 148.86
  C 200.16 144.13 193.87 142.81 191.36 140.76
  Q 190.88 140.37 190.96 139.75
  Z
  M 110.75 136.06
  A 0.30 0.30 0.0 0 0 110.45 135.76
  L 108.31 135.76
  A 0.30 0.30 0.0 0 0 108.01 136.06
  L 108.01 150.96
  A 0.30 0.30 0.0 0 0 108.31 151.26
  L 110.45 151.26
  A 0.30 0.30 0.0 0 0 110.75 150.96
  L 110.75 136.06
  Z
  M 175.23 139.46
  L 178.61 150.44
  Q 178.75 150.90 179.19 151.09
  Q 181.28 151.98 181.91 149.94
  Q 184.00 143.18 186.20 136.40
  Q 186.41 135.75 185.72 135.75
  L 184.21 135.75
  Q 183.64 135.75 183.50 136.29
  L 180.43 147.71
  Q 180.23 148.43 180.02 147.72
  L 176.59 136.40
  Q 176.39 135.75 175.72 135.75
  L 174.52 135.75
  Q 174.00 135.75 173.84 136.25
  L 170.29 147.75
  Q 170.02 148.60 169.81 147.74
  L 166.92 136.40
  Q 166.76 135.75 166.08 135.75
  L 164.57 135.75
  Q 163.95 135.75 164.13 136.35
  L 168.42 150.64
  Q 168.61 151.25 169.24 151.25
  L 170.54 151.25
  Q 171.20 151.25 171.40 150.63
  L 174.99 139.46
  Q 175.11 139.08 175.23 139.46
  Z"
/>
<path fill="#ffffff" d="
  M 89.21 112.48
  Q 88.47 112.92 87.75 112.52
  Q 87.02 112.10 87.00 112.00
  Q 86.96 111.80 87.04 111.62
  Q 87.19 111.25 87.58 111.25
  L 91.50 111.25
  Q 92.00 111.25 92.00 111.75
  L 92.00 117.76
  Q 92.00 118.31 91.48 118.47
  C 75.77 123.34 76.67 100.15 90.89 104.38
  C 91.49 104.55 91.71 104.76 91.45 105.39
  Q 91.26 105.87 90.75 105.79
  C 77.98 103.91 80.11 119.62 89.62 117.24
  Q 90.26 117.08 90.26 116.42
  L 90.24 113.06
  Q 90.23 111.88 89.21 112.48
  Z"
/>
<path fill="#ffffff" d="
  M 118.93 103.99
  C 120.67 104.45 120.35 106.83 118.52 106.21
  Q 117.96 106.02 117.99 105.43
  L 118.03 104.65
  A 0.72 0.72 0.0 0 1 118.93 103.99
  Z"
/>
<path fill="#ffffff" d="
  M 125.51 110.34
  C 125.49 111.70 124.60 118.03 127.16 117.49
  Q 127.69 117.38 127.93 117.87
  C 128.94 119.93 124.90 118.88 124.29 118.52
  Q 123.78 118.22 123.75 117.63
  L 123.38 110.37
  Q 123.36 109.85 122.83 109.80
  Q 122.31 109.76 121.91 109.31
  Q 121.08 108.37 122.33 108.35
  Q 123.88 108.32 123.47 106.60
  Q 123.33 105.99 123.87 105.70
  Q 124.50 105.36 125.21 105.29
  Q 126.40 105.17 125.63 106.09
  Q 124.86 107.01 125.52 107.92
  Q 125.87 108.39 126.44 108.28
  Q 127.23 108.12 127.95 108.46
  Q 128.90 108.91 127.99 109.45
  Q 127.19 109.92 126.19 109.76
  Q 125.51 109.66 125.51 110.34
  Z"
/>
<path fill="#ffffff" d="
  M 108.50 110.29
  L 108.50 116.69
  Q 108.50 117.45 109.26 117.48
  L 110.38 117.52
  Q 111.07 117.54 111.02 118.23
  Q 110.96 119.14 109.90 119.17
  C 105.21 119.31 106.57 113.31 106.48 110.32
  Q 106.46 109.72 105.87 109.76
  Q 105.21 109.81 104.81 109.17
  Q 104.37 108.48 105.18 108.35
  Q 106.88 108.09 106.44 106.19
  Q 106.30 105.55 106.95 105.53
  L 108.01 105.49
  Q 109.02 105.45 108.47 106.29
  Q 108.02 106.98 108.45 107.66
  Q 108.71 108.07 109.19 108.15
  L 110.87 108.40
  Q 111.86 108.54 111.15 109.25
  Q 110.38 110.02 109.16 109.75
  Q 108.50 109.61 108.50 110.29
  Z"
/>
<path fill="#ffffff" d="
  M 61.00 107.48
  L 61.00 127.20
  A 0.30 0.30 0.0 0 1 60.70 127.50
  L 38.30 127.50
  A 0.30 0.30 0.0 0 1 38.00 127.20
  L 38.00 110.66
  A 0.30 0.30 0.0 0 1 38.26 110.36
  L 60.66 107.18
  A 0.30 0.30 0.0 0 1 61.00 107.48
  Z"
/>
<path fill="#ffffff" d="
  M 96.15 114.98
  Q 98.15 118.77 102.41 117.25
  A 0.42 0.42 0.0 0 1 102.97 117.65
  L 102.97 117.95
  Q 102.97 118.54 102.41 118.73
  C 97.01 120.55 92.37 116.28 94.92 110.93
  C 97.29 105.95 104.18 107.76 103.66 113.39
  Q 103.61 114.00 103.00 114.00
  L 96.74 114.00
  Q 95.63 114.00 96.15 114.98
  Z
  M 96.69 112.53
  L 101.55 112.45
  A 0.25 0.25 0.0 0 0 101.79 112.19
  L 101.79 112.02
  A 2.56 2.56 0.0 0 0 99.18 109.51
  L 98.94 109.51
  A 2.56 2.56 0.0 0 0 96.43 112.12
  L 96.43 112.29
  A 0.25 0.25 0.0 0 0 96.69 112.53
  Z"
/>
<rect fill="#ffffff" x="-0.99" y="-5.46" transform="translate(119.01,113.56) rotate(0.3)" width="1.98" height="10.92" rx="0.80"/>
<path fill="#ffffff" d="
  M 139.0884 119.2149
  A 5.62 5.22 94.2 0 1 134.2940 113.2277
  A 5.62 5.22 94.2 0 1 139.9116 108.0051
  A 5.62 5.22 94.2 0 1 144.7060 113.9923
  A 5.62 5.22 94.2 0 1 139.0884 119.2149
  Z
  M 139.4400 117.6797
  A 4.09 3.20 90.7 0 0 142.6898 113.6291
  A 4.09 3.20 90.7 0 0 139.5400 109.5003
  A 4.09 3.20 90.7 0 0 136.2902 113.5509
  A 4.09 3.20 90.7 0 0 139.4400 117.6797
  Z"
/>
<path fill="#ffffff" d="
  M 149.54 109.27
  C 152.02 107.08 155.39 107.97 155.95 111.25
  C 156.08 112.01 157.32 119.90 154.74 118.96
  Q 154.26 118.79 154.26 118.27
  C 154.26 115.73 155.35 108.51 150.81 109.81
  C 148.28 110.53 149.00 116.30 148.97 118.33
  Q 148.96 119.00 148.29 119.00
  L 147.61 119.00
  Q 146.97 119.00 146.97 118.36
  L 147.06 108.57
  Q 147.07 107.72 147.87 108.00
  Q 148.53 108.22 148.71 109.01
  Q 148.91 109.83 149.54 109.27
  Z"
/>
<path fill="#000000" d="
  M 96.69 112.53
  A 0.25 0.25 0.0 0 1 96.43 112.29
  L 96.43 112.12
  A 2.56 2.56 0.0 0 1 98.94 109.51
  L 99.18 109.51
  A 2.56 2.56 0.0 0 1 101.79 112.02
  L 101.79 112.19
  A 0.25 0.25 0.0 0 1 101.55 112.45
  L 96.69 112.53
  Z"
/>
<ellipse fill="#000000" cx="0.00" cy="0.00" transform="translate(139.49,113.59) rotate(90.7)" rx="4.09" ry="3.20"/>
<path fill="#ffffff" d="
  M 36.50 110.93
  L 36.50 127.16
  A 0.34 0.34 0.0 0 1 36.16 127.50
  L 18.84 127.50
  A 0.34 0.34 0.0 0 1 18.50 127.16
  L 18.50 113.41
  A 0.34 0.34 0.0 0 1 18.79 113.08
  L 36.11 110.60
  A 0.34 0.34 0.0 0 1 36.50 110.93
  Z"
/>
<path fill="#ffffff" d="
  M 142.51 136.97
  L 142.50 129.00
  Q 142.50 128.50 143.00 128.50
  L 144.74 128.50
  Q 145.23 128.50 145.23 128.99
  L 145.28 150.48
  A 0.76 0.76 0.0 0 1 144.65 151.23
  Q 142.65 151.58 142.86 149.63
  Q 142.94 148.88 142.39 149.39
  Q 138.86 152.67 135.28 151.16
  C 125.95 147.22 132.85 129.52 142.21 137.11
  Q 142.51 137.35 142.51 136.97
  Z
  M 138.0655 149.4185
  A 5.93 4.53 91.3 0 0 142.7288 143.5928
  A 5.93 4.53 91.3 0 0 138.3345 137.5615
  A 5.93 4.53 91.3 0 0 133.6712 143.3872
  A 5.93 4.53 91.3 0 0 138.0655 149.4185
  Z"
/>
<path fill="#ffffff" d="
  M 18.50 143.56
  L 18.50 129.24
  A 0.49 0.49 0.0 0 1 18.99 128.75
  L 36.01 128.75
  A 0.49 0.49 0.0 0 1 36.50 129.24
  L 36.50 145.90
  A 0.49 0.49 0.0 0 1 35.94 146.38
  L 18.92 144.05
  A 0.49 0.49 0.0 0 1 18.50 143.56
  Z"
/>
<path fill="#ffffff" d="
  M 38.42 128.75
  L 60.49 128.75
  A 0.45 0.45 0.0 0 1 60.94 129.19
  L 61.16 149.49
  A 0.45 0.45 0.0 0 1 60.65 149.94
  L 38.39 146.73
  A 0.45 0.45 0.0 0 1 38.01 146.28
  L 37.97 129.20
  A 0.45 0.45 0.0 0 1 38.42 128.75
  Z"
/>
<path fill="#ffffff" d="
  M 86.80 147.37
  L 91.25 130.15
  Q 91.41 129.50 92.09 129.50
  L 93.76 129.50
  Q 94.31 129.50 94.43 130.03
  L 98.36 147.00
  Q 98.54 147.75 98.72 147.00
  Q 100.77 138.77 102.75 130.56
  Q 103.06 129.27 105.20 129.51
  A 0.61 0.60 11.0 0 1 105.72 130.27
  L 99.99 150.71
  Q 99.84 151.25 99.28 151.25
  L 97.48 151.25
  Q 96.92 151.25 96.80 150.71
  L 92.90 134.27
  Q 92.73 133.53 92.53 134.26
  L 88.21 150.41
  Q 88.09 150.84 87.69 151.04
  C 85.74 151.99 84.99 151.12 84.55 149.30
  Q 82.21 139.68 79.73 130.13
  Q 79.56 129.50 80.21 129.50
  L 81.85 129.50
  Q 82.48 129.50 82.62 130.11
  L 86.53 147.36
  Q 86.66 147.91 86.80 147.37
  Z"
/>
<circle fill="#ffffff" cx="109.37" cy="131.33" r="1.68"/>
<path fill="#ffffff" d="
  M 226.2972 151.7986
  A 11.00 7.16 90.9 0 1 219.3109 140.6875
  A 11.00 7.16 90.9 0 1 226.6428 129.8014
  A 11.00 7.16 90.9 0 1 233.6291 140.9125
  A 11.00 7.16 90.9 0 1 226.2972 151.7986
  Z
  M 226.4196 149.5399
  A 8.72 4.25 90.2 0 0 230.7000 140.8348
  A 8.72 4.25 90.2 0 0 226.4804 132.1001
  A 8.72 4.25 90.2 0 0 222.2000 140.8052
  A 8.72 4.25 90.2 0 0 226.4196 149.5399
  Z"
/>
<path fill="#ffffff" d="
  M 210.71 133.17
  L 208.04 134.51
  Q 207.25 134.91 207.25 134.03
  L 207.25 133.25
  Q 207.25 132.78 207.64 132.50
  Q 210.12 130.72 213.07 130.36
  Q 213.75 130.28 213.75 130.97
  L 213.75 150.75
  Q 213.75 151.25 213.25 151.25
  L 211.75 151.25
  Q 211.25 151.25 211.25 150.75
  L 211.25 133.50
  A 0.37 0.37 0.0 0 0 210.71 133.17
  Z"
/>
<ellipse fill="#000000" cx="0.00" cy="0.00" transform="translate(226.45,140.82) rotate(90.2)" rx="8.72" ry="4.25"/>
<path fill="#ffffff" d="
  M 117.50 137.63
  Q 119.09 135.96 119.81 135.78
  C 129.26 133.54 127.61 144.27 127.45 150.78
  Q 127.44 151.25 126.97 151.25
  L 125.26 151.25
  Q 124.75 151.25 124.75 150.74
  Q 124.76 146.24 124.70 141.76
  C 124.65 137.70 120.02 136.09 117.88 139.58
  C 116.63 141.60 117.25 148.01 117.25 150.56
  Q 117.25 151.25 116.55 151.25
  L 115.03 151.25
  Q 114.56 151.25 114.56 150.78
  L 114.37 136.32
  Q 114.36 135.75 114.93 135.75
  L 116.10 135.75
  Q 116.70 135.75 116.73 136.35
  L 116.78 137.36
  Q 116.83 138.33 117.50 137.63
  Z"
/>
<path fill="#ffffff" d="
  M 154.8237 151.6377
  A 8.17 7.60 95.1 0 1 147.9801 142.8244
  A 8.17 7.60 95.1 0 1 156.2763 135.3623
  A 8.17 7.60 95.1 0 1 163.1199 144.1756
  A 8.17 7.60 95.1 0 1 154.8237 151.6377
  Z
  M 155.5495 149.4900
  A 6.01 4.66 90.1 0 0 160.2200 143.4881
  A 6.01 4.66 90.1 0 0 155.5705 137.4700
  A 6.01 4.66 90.1 0 0 150.9000 143.4719
  A 6.01 4.66 90.1 0 0 155.5495 149.4900
  Z"
/>
<path fill="#ffffff" d="
  M 191.36 140.76
  C 193.87 142.81 200.16 144.13 197.50 148.86
  C 195.72 152.01 191.62 152.09 188.58 150.88
  Q 188.05 150.67 188.18 150.11
  L 188.44 149.02
  Q 188.61 148.29 189.25 148.68
  Q 191.77 150.20 194.35 149.00
  Q 194.80 148.79 195.00 148.34
  Q 195.69 146.73 194.48 145.35
  Q 194.12 144.94 193.60 144.80
  C 184.05 142.12 189.33 132.68 196.95 136.11
  Q 197.49 136.35 197.25 136.90
  L 196.89 137.75
  Q 196.63 138.35 196.05 138.04
  C 194.18 137.01 191.31 137.17 190.96 139.75
  Q 190.88 140.37 191.36 140.76
  Z"
/>
<rect fill="#ffffff" x="108.01" y="135.76" width="2.74" height="15.50" rx="0.30"/>
<path fill="#ffffff" d="
  M 174.99 139.46
  L 171.40 150.63
  Q 171.20 151.25 170.54 151.25
  L 169.24 151.25
  Q 168.61 151.25 168.42 150.64
  L 164.13 136.35
  Q 163.95 135.75 164.57 135.75
  L 166.08 135.75
  Q 166.76 135.75 166.92 136.40
  L 169.81 147.74
  Q 170.02 148.60 170.29 147.75
  L 173.84 136.25
  Q 174.00 135.75 174.52 135.75
  L 175.72 135.75
  Q 176.39 135.75 176.59 136.40
  L 180.02 147.72
  Q 180.23 148.43 180.43 147.71
  L 183.50 136.29
  Q 183.64 135.75 184.21 135.75
  L 185.72 135.75
  Q 186.41 135.75 186.20 136.40
  Q 184.00 143.18 181.91 149.94
  Q 181.28 151.98 179.19 151.09
  Q 178.75 150.90 178.61 150.44
  L 175.23 139.46
  Q 175.11 139.08 174.99 139.46
  Z"
/>
<ellipse fill="#000000" cx="0.00" cy="0.00" transform="translate(155.56,143.48) rotate(90.1)" rx="6.01" ry="4.66"/>
<ellipse fill="#000000" cx="0.00" cy="0.00" transform="translate(138.20,143.49) rotate(91.3)" rx="5.93" ry="4.53"/>
</svg>
